# xmcd
#
# Track frame offsets: 
#        150
#        11062
#        24190
#        38306
#        49216
#        62043
#        76406
#        93506
#        105820
#        118759
#        127568
#        139360
#        155199
#        168480
#        182225
#        194113
#        206968
#        217454
#        228622
#        241744
#        251820
#        265690
#        277668
#        290812
#        302113
#        312729
#
# Disc length: 4324 seconds
#
# Revision: 1
# Processed by: cddbd v1.5.2PL0 Copyright (c) Steve Scherf et al.
# Submitted via: ExactAudioCopy v1.1
#
DISCID=8410e21a
DTITLE=Various Artist - Preachin' The Blues - Cyril Davies Memorial A
DTITLE=lbum - Disc 1
DYEAR=2014
DGENRE=Blues
TTITLE0=Cyril Davies - K.C. Moan (mono)
TTITLE1=Beryl Bryden's Backroom Skiffle Group - Kansas City Blues (mon
TTITLE1=o)
TTITLE2=Beryl Bryden's Backroom Skiffle Group - Casey Jones (mono)
TTITLE3=Beryl Bryden's Backroom Skiffle Group - This Train (mono)
TTITLE4=Beryl Bryden's Backroom Skiffle Group - Rock Me (mono)
TTITLE5=Alexis Korner's Breakdown Group - Leaving Blues (mono)
TTITLE6=Alexis Korner's Breakdown Group - Rotten Break (mono)
TTITLE7=Alexis Korner's Breakdown Group - Alberta (mono)
TTITLE8=Alexis Korner's Breakdown Group - Roundhouse Stomp (mono)
TTITLE9=Alexis Korner's Breakdown Group - Skip To My Lou (mono)
TTITLE10=Alexis Korner's Breakdown Group - Good Morning (mono)
TTITLE11=Alexis Korner's Breakdown Group - Boll Weevil (mono)
TTITLE12=Alexis Korner's Breakdown Group - Ella Speed (mono)
TTITLE13=Alexis Korner's Breakdown Group - Streamline Train (mono)
TTITLE14=Alexis Korner Skiffle Group - I Ain't Gonna Worry No More (mo
TTITLE14=no)
TTITLE15=Alexis Korner Skiffle Group - County Jail (mono)
TTITLE16=Alexis Korner Skiffle Group - Kid Man (mono)
TTITLE17=Alexis Korner Skiffle Group - Easy Rider (mono)
TTITLE18=Alexis Korner's Blues Incorporated - Sail On (mono)
TTITLE19=Alexis Korner's Blues Incorporated - National Defence Blues (
TTITLE19=mono)
TTITLE20=Alexis Korner's Blues Incorporated - Go Down Sunshine (mono)
TTITLE21=Alexis Korner's Blues Incorporated - Death Letter (mono)
TTITLE22=The Roundhouse Jug Four - K.C. Moan (mono)
TTITLE23=The Roundhouse Jug Four - Hesitation Blues (mono)
TTITLE24=The Roundhouse Jug Four - It's The Same Old Thing (mono)
TTITLE25=The Roundhouse Jug Four - Short Legs Shuffle (mono)
EXTD=
EXTT0=
EXTT1=
EXTT2=
EXTT3=
EXTT4=
EXTT5=
EXTT6=
EXTT7=
EXTT8=
EXTT9=
EXTT10=
EXTT11=
EXTT12=
EXTT13=
EXTT14=
EXTT15=
EXTT16=
EXTT17=
EXTT18=
EXTT19=
EXTT20=
EXTT21=
EXTT22=
EXTT23=
EXTT24=
EXTT25=
PLAYORDER=
